<?xml version="1.0" encoding="UTF-8"?>
<svg id="_レイヤー_1" data-name="レイヤー_1" xmlns="http://www.w3.org/2000/svg" xmlns:xlink="http://www.w3.org/1999/xlink" viewBox="0 0 256 256">
  <defs>
    <style>
      .cls-1, .cls-2 {
        fill: none;
      }

      .cls-3 {
        fill: #f2f2f2;
        stroke: #000;
      }

      .cls-3, .cls-2, .cls-4 {
        stroke-miterlimit: 10;
        stroke-width: 24px;
      }

      .cls-2, .cls-4 {
        stroke: #fff;
        stroke-linecap: round;
      }

      .cls-5 {
        clip-path: url(#clippath);
      }
    </style>
    <clipPath id="clippath">
      <path class="cls-1" d="M59.472,38.776v171.785h140.912V38.776H59.472ZM126.228,125.395l-5.651,8.407c-1.485-1.434-2.554-3.197-3.142-5.11-.914-1.694-1.435-3.632-1.435-5.692v-9.734h4.196l.897.559,5.202,10.571-.067.999ZM154.337,153.715l-11.834-6.832.356-4.178.996-.915h6.879l.895.553,3.021,6.04.102.533-.413,4.799ZM155.271,135.806l-.679.266h-15.269l-.897-.559-5.034-10.234.065-.996,5.878-8.816.664-.238v2.496l21.436,12.376-6.165,5.705Z"/>
    </clipPath>
  </defs>
  <circle class="cls-3" cx="128" cy="128" r="116"/>
  <g>
    <path d="M87.646,120.307l-.503.503h-8.725l5.537-64.094,5.705-5.201,14.262,15.436-2.181,24.497-1.342,15.101-.168,2.181-12.584,11.577ZM164.156,203.36l-5.537,5.201h-71.979l-4.698-5.201,16.779-15.604h51.342l14.094,15.604ZM120.196,114.266l5.202,10.571-6.879,10.234h-15.101l-9.396-10.402,11.242-10.403h14.933ZM95.7,45.978l5.537-5.201h71.98l4.698,5.201-16.779,15.604h-51.342l-14.094-15.604ZM106.103,100.508l2.685-31.208h6.04l3.691,7.718-2.517,29.53h-6.879l-3.02-6.041ZM156.438,114.266l9.396,10.403-11.241,10.402h-15.269l-5.034-10.234,7.048-10.571h15.101ZM153.754,148.83l-2.685,31.208h-6.041l-3.69-7.718,2.517-29.53h6.879l3.021,6.04ZM159.626,140.608l13.087-12.08h8.726l-5.537,64.094-5.705,5.201-14.262-15.437.336-2.349,1.846-22.147,1.342-15.101.168-2.182Z"/>
    <line class="cls-2" x1="128" y1="123" x2="128" y2="44.944"/>
    <line class="cls-4" x1="128.892" y1="125.168" x2="196.491" y2="164.196"/>
    <g class="cls-5">
      <path d="M87.646,120.307l-.503.503h-8.725l5.537-64.094,5.705-5.201,14.262,15.436-2.181,24.497-1.342,15.101-.168,2.181-12.584,11.577ZM164.156,203.36l-5.537,5.201h-71.979l-4.698-5.201,16.779-15.604h51.342l14.094,15.604ZM120.196,114.266l5.202,10.571-6.879,10.234h-15.101l-9.396-10.402,11.242-10.403h14.933ZM95.7,45.978l5.537-5.201h71.98l4.698,5.201-16.779,15.604h-51.342l-14.094-15.604ZM106.103,100.508l2.685-31.208h6.04l3.691,7.718-2.517,29.53h-6.879l-3.02-6.041ZM156.438,114.266l9.396,10.403-11.241,10.402h-15.269l-5.034-10.234,7.048-10.571h15.101ZM153.754,148.83l-2.685,31.208h-6.041l-3.69-7.718,2.517-29.53h6.879l3.021,6.04ZM159.626,140.608l13.087-12.08h8.726l-5.537,64.094-5.705,5.201-14.262-15.437.336-2.349,1.846-22.147,1.342-15.101.168-2.182Z"/>
    </g>
  </g>
</svg>