<?xml version="1.0" encoding="UTF-8"?>
<svg id="_レイヤー_1" data-name="レイヤー_1" xmlns="http://www.w3.org/2000/svg" xmlns:xlink="http://www.w3.org/1999/xlink" viewBox="0 0 256 256">
  <defs>
    <style>
      .cls-1 {
        stroke-linecap: round;
      }

      .cls-1, .cls-2, .cls-3 {
        fill: none;
      }

      .cls-1, .cls-3 {
        stroke: #000;
        stroke-miterlimit: 10;
        stroke-width: 24px;
      }

      .cls-4 {
        fill: red;
      }

      .cls-5 {
        clip-path: url(#clippath);
      }
    </style>
    <clipPath id="clippath">
      <path class="cls-2" d="M59.472,50.776v171.785h140.912V50.776H59.472ZM126.228,137.395l-2.466,3.668-.87-.502c-2.733-1.578-4.598-4.073-5.457-6.869-.914-1.694-1.435-3.632-1.435-5.692v-2.734h4.196l.897.559,5.202,10.571-.067.999ZM152.935,157.906l-6.293-3.633.629-.482h3.463l.895.553,1.432,2.862-.125.701ZM154.593,148.071h-15.269l-.897-.559-5.034-10.234.065-.996,7.048-10.571.832-.445h3.064l21.693,12.524-10.823,10.015-.679.266ZM179.61,173.307l-21.689-12.522.541-6.083.167-2.17.318-.657,12.137-11.203,10.807,6.239-2.281,26.396Z"/>
    </clipPath>
  </defs>
  <circle class="cls-3" cx="128" cy="128" r="116"/>
  <g>
    <path class="cls-4" d="M87.646,132.307l-.503.504h-8.725l5.537-64.095,5.705-5.201,14.262,15.436-2.181,24.497-1.342,15.101-.168,2.181-12.584,11.577ZM164.156,215.36l-5.537,5.201h-71.979l-4.698-5.201,16.779-15.604h51.342l14.094,15.604ZM120.196,126.266l5.202,10.571-6.879,10.234h-15.101l-9.396-10.402,11.242-10.403h14.933ZM95.7,57.978l5.537-5.201h71.98l4.698,5.201-16.779,15.604h-51.342l-14.094-15.604ZM106.103,112.508l2.685-31.208h6.04l3.691,7.718-2.517,29.53h-6.879l-3.02-6.041ZM156.438,126.266l9.396,10.403-11.241,10.402h-15.269l-5.034-10.234,7.048-10.571h15.101ZM153.754,160.83l-2.685,31.208h-6.041l-3.69-7.718,2.517-29.53h6.879l3.021,6.04ZM159.626,152.608l13.087-12.08h8.726l-5.537,64.094-5.705,5.201-14.262-15.437.336-2.349,1.846-22.147,1.342-15.101.168-2.182Z"/>
    <line class="cls-1" x1="128" y1="128" x2="128" y2="49.944"/>
    <line class="cls-1" x1="128.892" y1="130.168" x2="196.491" y2="169.196"/>
    <g class="cls-5">
      <path class="cls-4" d="M87.646,132.307l-.503.504h-8.725l5.537-64.095,5.705-5.201,14.262,15.436-2.181,24.497-1.342,15.101-.168,2.181-12.584,11.577ZM164.156,215.36l-5.537,5.201h-71.979l-4.698-5.201,16.779-15.604h51.342l14.094,15.604ZM120.196,126.266l5.202,10.571-6.879,10.234h-15.101l-9.396-10.402,11.242-10.403h14.933ZM95.7,57.978l5.537-5.201h71.98l4.698,5.201-16.779,15.604h-51.342l-14.094-15.604ZM106.103,112.508l2.685-31.208h6.04l3.691,7.718-2.517,29.53h-6.879l-3.02-6.041ZM156.438,126.266l9.396,10.403-11.241,10.402h-15.269l-5.034-10.234,7.048-10.571h15.101ZM153.754,160.83l-2.685,31.208h-6.041l-3.69-7.718,2.517-29.53h6.879l3.021,6.04ZM159.626,152.608l13.087-12.08h8.726l-5.537,64.094-5.705,5.201-14.262-15.437.336-2.349,1.846-22.147,1.342-15.101.168-2.182Z"/>
    </g>
  </g>
</svg>