<?xml version="1.0" encoding="UTF-8"?>
<svg id="_レイヤー_1" data-name="レイヤー_1" xmlns="http://www.w3.org/2000/svg" viewBox="0 0 508.39 167.086">
  <g>
    <path d="M100.097,148.2l13.3-42.826-18.354-57.855h16.492l18.62,58.121-14.098,42.561h-15.96ZM132.549,93.004l-6.916-23.009,7.847-22.477h16.492l-15.96,45.486h-1.463Z" style="fill: #231815;"/>
    <path d="M156.489,71.591c0-3.279.553-6.384,1.662-9.31,1.108-2.926,2.704-5.497,4.788-7.714,2.083-2.215,4.566-3.944,7.448-5.187,2.88-1.24,6.095-1.862,9.643-1.862v15.029c-1.596,0-3.016.399-4.256,1.197-1.243.798-2.217,1.951-2.926,3.458-.711,1.509-1.064,3.238-1.064,5.187v49.609h-15.295v-50.407ZM194.926,72.39c0-1.773-.333-3.413-.998-4.921-.665-1.507-1.619-2.704-2.86-3.591-1.243-.885-2.749-1.33-4.522-1.33v-15.029c3.545,0,6.76.622,9.643,1.862,2.88,1.243,5.364,2.972,7.448,5.187,2.082,2.217,3.678,4.788,4.788,7.714,1.107,2.926,1.662,6.03,1.662,9.31v50.407h-15.162v-49.609Z" style="fill: #231815;"/>
    <path d="M247.725,122.664c-4.788,0-8.844-.886-12.168-2.66-3.325-1.772-6.031-4.011-8.113-6.717-2.084-2.703-3.614-5.453-4.589-8.246-.977-2.793-1.463-5.164-1.463-7.115v-44.821c0-2.039.486-4.456,1.463-7.249.975-2.793,2.505-5.52,4.589-8.179,2.082-2.66,4.788-4.898,8.113-6.717,3.325-1.816,7.38-2.727,12.168-2.727v16.093c-1.951,0-3.57.378-4.854,1.13-1.286.754-2.307,1.642-3.059,2.66-.755,1.02-1.31,1.995-1.663,2.926-.354.931-.531,1.619-.531,2.062v44.821c0,.444.177,1.131.531,2.062.354.931.908,1.907,1.663,2.926.752,1.021,1.772,1.885,3.059,2.594,1.284.711,2.903,1.063,4.854,1.063v16.094ZM263.685,57.494v-2.128c-.089-.709-.155-1.484-.199-2.328-.046-.842-.245-1.573-.599-2.194-.444-1.241-1.021-2.261-1.729-3.059-.711-.798-1.486-1.417-2.328-1.862-.844-.442-1.642-.798-2.394-1.064-.755-.266-1.353-.442-1.796-.532v-16.093c3.192,0,6.229.711,9.11,2.128,2.881,1.419,5.52,3.304,7.914,5.653,2.394,2.35,4.276,5.033,5.652,8.046,1.374,3.015,2.062,6.118,2.062,9.31l-15.694,4.123ZM254.641,122.664v-16.094c.975-.176,2.016-.485,3.126-.931,1.107-.442,2.148-1.085,3.125-1.929.975-.841,1.64-1.883,1.995-3.125.354-.709.576-1.484.665-2.328.088-.841.133-1.662.133-2.46v-1.729l15.694,3.724c0,4.7-1.197,8.934-3.591,12.701-2.395,3.771-5.476,6.739-9.244,8.911-3.77,2.174-7.736,3.259-11.903,3.259Z" style="fill: #231815;"/>
    <path d="M289.22,121.999V27.169h16.492v94.829h-16.492Z" style="fill: #231815;"/>
    <path d="M404.792,121.999c-4.256,0-7.87-.709-10.84-2.128-2.972-1.417-5.343-3.235-7.115-5.453-1.774-2.215-3.082-4.477-3.924-6.783-.844-2.305-1.264-4.256-1.264-5.852v-34.048c0-1.862.443-3.923,1.33-6.185.886-2.261,2.282-4.476,4.189-6.65,1.906-2.171,4.3-3.944,7.183-5.32,2.88-1.374,6.317-2.062,10.308-2.062v14.763c-1.775,0-3.281.312-4.522.931-1.242.622-2.128,1.376-2.66,2.261-.531.887-.798,1.729-.798,2.527v33.782c0,1.063.31,2.018.932,2.859.619.844,1.529,1.485,2.726,1.928,1.197.445,2.682.711,4.456.799v14.63ZM417.827,73.586v-3.857c0-1.862-.333-3.302-.998-4.322-.665-1.019-1.529-1.773-2.593-2.261-1.064-.486-2.218-.731-3.458-.731v-14.896c3.9,0,7.447.931,10.64,2.793s5.763,4.368,7.714,7.515c1.949,3.148,2.926,6.629,2.926,10.44l-14.23,5.32ZM410.778,122.131v-14.896c1.683,0,3.169-.243,4.455-.731,1.284-.486,2.305-1.284,3.059-2.394.753-1.107,1.131-2.548,1.131-4.322v-3.857l14.231,5.453c0,3.724-1.11,7.182-3.325,10.374-2.218,3.192-5.077,5.742-8.579,7.647-3.503,1.908-7.161,2.814-10.972,2.727Z" style="fill: #231815;"/>
    <path d="M443.095,121.999V27.169h15.827v94.829h-15.827ZM483.128,121.999l-20.482-37.373,20.216-36.974h17.157l-20.481,36.974,20.748,37.373h-17.157Z" style="fill: #231815;"/>
  </g>
  <g>
    <path d="M105.362,143.628l13.29-42.792-18.339-57.81h16.479l18.605,58.075-14.087,42.526h-15.948ZM137.789,88.477l-6.911-22.991,7.841-22.459h16.479l-15.947,45.45h-1.462Z" style="fill: none; stroke: #231815; stroke-miterlimit: 10;"/>
    <path d="M161.709,67.081c0-3.277.553-6.379,1.662-9.303,1.106-2.924,2.701-5.492,4.784-7.708,2.081-2.213,4.562-3.941,7.442-5.183,2.878-1.24,6.09-1.861,9.635-1.861v15.017c-1.595,0-3.013.399-4.252,1.196-1.242.797-2.216,1.95-2.924,3.455-.71,1.508-1.063,3.235-1.063,5.183v49.569h-15.283v-50.367ZM200.116,67.878c0-1.771-.332-3.41-.997-4.917-.665-1.505-1.618-2.702-2.857-3.588-1.242-.884-2.747-1.329-4.518-1.329v-15.017c3.542,0,6.754.621,9.635,1.861,2.878,1.242,5.359,2.969,7.442,5.183,2.081,2.216,3.675,4.784,4.784,7.708,1.107,2.924,1.661,6.026,1.661,9.303v50.367h-15.15v-49.569Z" style="fill: none; stroke: #231815; stroke-miterlimit: 10;"/>
    <path d="M252.875,118.112c-4.784,0-8.838-.884-12.16-2.657-3.322-1.771-6.025-4.008-8.106-6.712-2.083-2.701-3.611-5.448-4.585-8.239-.976-2.79-1.462-5.159-1.462-7.109v-44.786c0-2.037.486-4.452,1.462-7.243.974-2.791,2.502-5.515,4.585-8.173,2.081-2.658,4.784-4.895,8.106-6.711,3.322-1.814,7.376-2.724,12.16-2.724v16.08c-1.95,0-3.567.378-4.851,1.13-1.285.753-2.305,1.64-3.057,2.658-.754,1.02-1.309,1.994-1.661,2.924-.355.93-.531,1.618-.531,2.06v44.786c0,.444.176,1.13.531,2.06.353.93.907,1.906,1.661,2.923.752,1.02,1.771,1.884,3.057,2.592,1.283.71,2.9,1.062,4.851,1.062v16.08ZM268.822,52.994v-2.126c-.089-.708-.155-1.482-.199-2.326-.046-.841-.245-1.572-.598-2.192-.444-1.24-1.02-2.259-1.729-3.057-.71-.797-1.484-1.417-2.325-1.861-.843-.442-1.641-.797-2.393-1.063-.753-.266-1.352-.442-1.794-.532v-16.08c3.189,0,6.224.71,9.104,2.126,2.878,1.418,5.516,3.301,7.907,5.648,2.393,2.349,4.273,5.029,5.648,8.04,1.372,3.013,2.06,6.113,2.06,9.303l-15.682,4.12ZM259.785,118.112v-16.08c.975-.176,2.015-.485,3.123-.93,1.107-.442,2.147-1.084,3.123-1.927.975-.842,1.639-1.881,1.994-3.123.353-.708.575-1.483.664-2.326.087-.841.133-1.661.133-2.458v-1.728l15.682,3.721c0,4.697-1.196,8.927-3.588,12.691-2.393,3.767-5.472,6.733-9.236,8.903-3.767,2.172-7.73,3.256-11.895,3.256Z" style="fill: none; stroke: #231815; stroke-miterlimit: 10;"/>
    <path d="M294.336,117.448V22.694h16.479v94.753h-16.479Z" style="fill: none; stroke: #231815; stroke-miterlimit: 10;"/>
    <path d="M409.817,117.448c-4.253,0-7.863-.708-10.831-2.126-2.97-1.417-5.339-3.233-7.109-5.449-1.773-2.213-3.08-4.473-3.921-6.777-.843-2.303-1.263-4.253-1.263-5.847v-34.021c0-1.86.442-3.92,1.329-6.18.885-2.259,2.28-4.473,4.187-6.645,1.904-2.17,4.296-3.941,7.176-5.316,2.878-1.373,6.312-2.06,10.3-2.06v14.751c-1.773,0-3.279.312-4.519.93-1.242.621-2.126,1.375-2.658,2.259-.531.887-.797,1.728-.797,2.525v33.755c0,1.063.31,2.016.93,2.857.619.844,1.528,1.485,2.725,1.927,1.196.444,2.679.711,4.452.798v14.618ZM422.84,69.075v-3.854c0-1.861-.332-3.3-.996-4.319-.665-1.018-1.528-1.771-2.592-2.259-1.063-.486-2.216-.731-3.455-.731v-14.884c3.897,0,7.442.931,10.632,2.791s5.758,4.365,7.707,7.508c1.948,3.146,2.924,6.624,2.924,10.433l-14.22,5.316ZM415.797,117.581v-14.884c1.682,0,3.166-.243,4.452-.731,1.283-.485,2.303-1.283,3.057-2.392.751-1.106,1.129-2.545,1.129-4.319v-3.854l14.22,5.449c0,3.721-1.108,7.176-3.322,10.366-2.216,3.189-5.072,5.737-8.571,7.641-3.501,1.906-7.156,2.812-10.964,2.725Z" style="fill: none; stroke: #231815; stroke-miterlimit: 10;"/>
    <path d="M448.089,117.448V22.694h15.814v94.753h-15.814ZM488.09,117.448l-20.466-37.343,20.2-36.945h17.144l-20.466,36.945,20.731,37.343h-17.144Z" style="fill: none; stroke: #231815; stroke-miterlimit: 10;"/>
  </g>
  <circle cx="346.094" cy="84.032" r="28.323" style="fill: none; stroke: #231815; stroke-miterlimit: 10; stroke-width: 8px;"/>
  <path d="M346.094,64.747v19.286" style="fill: none; stroke: #231815; stroke-linecap: round; stroke-miterlimit: 10; stroke-width: 6px;"/>
  <path d="M346.094,84.032c2.39,2.329,9.558,9.317,9.558,9.317" style="fill: none; stroke: #231815; stroke-linecap: round; stroke-miterlimit: 10; stroke-width: 6px;"/>
  <path d="M19.38,77.215l-.479.689h-6.938l4.307-57.062,4.067-4.273,10.169,12.818-1.794,22.604-1.077,14.886-.12,1.93-8.135,8.408ZM75.488,143.926l-4.067,4.272H15.672l-3.35-4.272,12.083-12.818h40.915l10.168,12.818ZM43.666,70.737l3.708,8.546-4.905,8.545h-14.715l-6.819-8.545,8.016-8.546h14.715ZM22.132,14.639l4.067-4.273h55.749l3.35,4.273-12.083,12.818h-40.915l-10.168-12.818ZM30.746,56.954l2.034-26.739h3.709l5.264,12.405-1.914,25.361h-4.427l-4.666-11.027ZM69.626,70.737l6.938,8.684-7.896,8.408h-14.715l-3.708-8.545,4.905-8.546h14.476ZM66.875,101.612l-2.034,26.739h-3.709l-5.264-12.405,1.914-25.361h4.426l4.666,11.027ZM78.24,81.35l.479-.551h6.938l-4.307,56.924-4.068,4.273-10.168-12.818.12-.827,1.675-21.777.957-12.957.239-3.859,8.135-8.408Z" style="fill: #e60012;"/>
</svg>